<?xml version="1.0" encoding="utf-8"?>
<!-- Generator: Adobe Illustrator 19.0.0, SVG Export Plug-In . SVG Version: 6.00 Build 0)  -->
<svg version="1.1" id="Layer_1" xmlns="http://www.w3.org/2000/svg" xmlns:xlink="http://www.w3.org/1999/xlink" x="0px" y="0px"
	 viewBox="0 0 230.4 264" style="enable-background:new 0 0 230.4 264;" xml:space="preserve">
<style type="text/css">
	.st0{fill:#FFFFFF;}
	.st1{fill:#293549;}
	.st2{fill:#3BAB5E;}
	.st3{fill:#F7F8F9;}
	.st4{opacity:0.4;fill:#424143;enable-background:new    ;}
	.st5{opacity:0.1;fill:#221F1F;enable-background:new    ;}
</style>
<g>
	<path class="st0" d="M2.7,72.8c0-3.1,2.2-6.9,4.9-8.5L110.5,4.9c2.7-1.5,7.1-1.5,9.8,0l102.9,59.4c2.7,1.5,4.9,5.4,4.9,8.5v118.9
		c0,3.1-2.2,6.9-4.9,8.5l-102.9,59.4c-2.7,1.5-7.1,1.5-9.8,0L7.6,200.2c-2.7-1.5-4.9-5.4-4.9-8.5L2.7,72.8z"/>
	<g>
		<g>
			<g>
				<g>
					<g>
						<path class="st1" d="M56.5,46.9c0-3.9,3.1-6.9,6.9-6.9h104.2c3.9,0,6.9,3.1,6.9,6.9v171c0,3.9-3.1,6.9-6.9,6.9H63.4
							c-3.9,0-6.9-3.1-6.9-6.9L56.5,46.9z"/>
					</g>
				</g>
				<g>
					<g>
						<rect x="63.4" y="64.1" class="st2" width="104.2" height="130.6"/>
					</g>
				</g>
				<g>
					<g>
						<g>
							<path class="st3" d="M119.8,51.2h-8.6c-0.3,0-0.4-0.1-0.4-0.4c0-0.1,0.1-0.4,0.4-0.4h8.6c0.3,0,0.4,0.1,0.4,0.4
								C120.2,51.1,120,51.2,119.8,51.2z"/>
						</g>
					</g>
					<g>
						<g>
							<path class="st3" d="M122.6,53.2h-14.1c-0.1,0-0.4-0.1-0.4-0.4c0-0.3,0.1-0.4,0.4-0.4h14.1c0.1,0,0.4,0.1,0.4,0.4
								C123,53,122.9,53.2,122.6,53.2z"/>
						</g>
					</g>
					<g>
						<g>
							<path class="st3" d="M119.8,55h-8.6c-0.1,0-0.4-0.1-0.4-0.4c0-0.1,0.1-0.4,0.4-0.4h8.6c0.3,0,0.4,0.1,0.4,0.4
								C120.2,54.8,120,55,119.8,55z"/>
						</g>
					</g>
				</g>
			</g>
			<g>
				<path class="st3" d="M115.5,218.5c-4.1,0-7.5-3.3-7.5-7.6s3.3-7.5,7.5-7.5c4.1,0,7.5,3.3,7.5,7.5
					C123,215,119.6,218.5,115.5,218.5z M115.5,204c-3.7,0-6.8,3.1-6.8,6.8c0,3.7,3.1,6.8,6.8,6.8c3.7,0,6.8-3.1,6.8-6.8
					C122.3,207.1,119.3,204,115.5,204z"/>
			</g>
		</g>
		<rect x="72.1" y="71" class="st3" width="86.8" height="24.6"/>
		<g>
			<rect x="102.5" y="103.7" class="st4" width="56.5" height="24.6"/>
			<rect x="72.1" y="103.5" class="st4" width="24.8" height="24.8"/>
			<rect x="102.5" y="134.3" class="st4" width="56.5" height="24.6"/>
			<rect x="72.1" y="134.1" class="st4" width="24.8" height="24.8"/>
			<rect x="102.5" y="164.8" class="st4" width="56.5" height="24.6"/>
			<rect x="72.1" y="164.7" class="st4" width="24.8" height="24.8"/>
		</g>
	</g>
	<path class="st5" d="M223.2,64.4l-103-59.4c-1.3-0.8-3-1.2-4.6-1.2v257.1c1.7,0,3.3-0.4,4.6-1.2l102.9-59.4
		c2.7-1.5,4.9-5.4,4.9-8.5v-119C228.1,69.8,225.9,65.9,223.2,64.4z"/>
</g>
<g id="XMLID_157_">
</g>
<g id="XMLID_158_">
</g>
<g id="XMLID_159_">
</g>
<g id="XMLID_160_">
</g>
<g id="XMLID_161_">
</g>
<g id="XMLID_162_">
</g>
</svg>
