<?xml version="1.0" encoding="utf-8"?>
<!-- Generator: Adobe Illustrator 19.0.0, SVG Export Plug-In . SVG Version: 6.00 Build 0)  -->
<svg version="1.1" id="Layer_1" xmlns="http://www.w3.org/2000/svg" xmlns:xlink="http://www.w3.org/1999/xlink" x="0px" y="0px"
	 viewBox="0 0 148.7 30.7" style="enable-background:new 0 0 148.7 30.7;" xml:space="preserve">
<style type="text/css">
	.st0{fill:#FFFFFF;}
	.st1{fill:#12AFAF;}
</style>
<path id="XMLID_14_" class="st0" d="M47.6,25.2V5h3.6l3.1,7.9c0.6,1.6,1.6,4.2,2.2,5.9h0.1c-0.1-2.1-0.4-5.7-0.4-9.4V5h3.5v20.2
	h-3.6L53,17.5c-0.8-2-1.4-4-2-6.1h-0.1c0.1,2,0.2,5.2,0.2,9.2v4.6H47.6L47.6,25.2z"/>
<path id="XMLID_13_" class="st0" d="M71.7,16.3h-4.6v5.5h5.2v3.4h-9.2V5h8.8v3.4H67v4.7h4.6L71.7,16.3L71.7,16.3z"/>
<path id="XMLID_12_" class="st0" d="M77.2,8.6h-3.6V5h11.1v3.6h-3.6v16.6h-3.9V8.6z"/>
<path id="XMLID_11_" class="st0" d="M89.4,25.2L85.9,4.9H90l1,8.1c0.3,2.3,0.5,4.6,0.7,7.1h0.1c0.3-2.5,0.7-4.7,1.1-7.1l1.4-8.1h3.2
	l1.4,8c0.4,2.3,0.7,4.5,1,7.2h0.1c0.3-2.6,0.5-4.8,0.8-7.2l1-8h3.8L102,25.2h-4.1l-1.2-6.6c-0.3-1.9-0.6-4.2-0.9-6.6h-0.1
	c-0.4,2.4-0.7,4.7-1.1,6.7l-1.4,6.6L89.4,25.2L89.4,25.2z"/>
<path id="XMLID_8_" class="st0" d="M119.7,14.7c0,7.6-2.7,10.7-6.6,10.7s-6.4-4.9-6.4-10.4s2.2-10.3,6.7-10.3S119.7,10.1,119.7,14.7
	z M110.8,15.1c0,4.6,0.9,6.9,2.5,6.9s2.3-3,2.3-7.1s-0.5-6.8-2.3-6.8S110.8,10.7,110.8,15.1z"/>
<path id="XMLID_5_" class="st0" d="M122.2,5.3c1.4-0.3,2.9-0.4,4.3-0.4c2.2,0,4.1,0.3,5.4,1.5c1.1,1.1,1.7,2.6,1.6,4.2
	c0.1,2.2-1.1,4.2-3.1,5.1l0,0c1.4,0.5,2.1,1.8,2.5,4c0.3,1.9,0.7,3.7,1.3,5.5h-4.1c-0.5-1.6-0.8-3.2-1-4.8c-0.4-2.5-1-3.2-2.3-3.2
	h-0.6v8.1h-3.9L122.2,5.3L122.2,5.3z M126.1,14.1h0.7c1.7,0,2.7-1.4,2.7-3.2s-0.7-2.9-2.5-3h-0.9v6L126.1,14.1z"/>
<path id="XMLID_4_" class="st0" d="M136.3,5h3.9v9.1h0.1l1-2.6L144,5h4.3l-4.5,8.8l4.6,11.5h-4.3l-2.9-8.4l-0.9,1.7v6.7h-4L136.3,5
	L136.3,5z"/>
<g id="Logo">
	<g id="xamagon">
		<path id="Logo-2" class="st1" d="M10.3,0.3C9.4,0.3,8.5,0.8,8,1.6L0.7,14.2c-0.4,0.8-0.4,1.8,0,2.6L8,29.2
			c0.5,0.7,1.4,1.2,2.3,1.1h14.6c0.9,0.1,1.8-0.4,2.3-1.1l7.3-12.5c0.5-0.8,0.5-1.8,0-2.6L27.2,1.6c-0.5-0.8-1.4-1.3-2.3-1.3H10.3z
			 M10.4,7.4H13c0.1,0.1,0.2,0.2,0.3,0.3l4.3,7.6v0.2l0,0l4.3-7.7c0.1-0.1,0.2-0.2,0.3-0.3h2.5c0.2,0.1,0.4,0.4,0.3,0.6l-4.2,7.5
			L25,23c0.1,0.2-0.1,0.4-0.3,0.5l0,0h-2.5l-0.3-0.2l-4.3-7.5h-0.1l-4.3,7.5l-0.3,0.2h-2.5c-0.2,0-0.3,0-0.4-0.2
			c0-0.1,0-0.2,0.1-0.3l4.2-7.4l-4.2-7.5c-0.1-0.2,0-0.4,0.2-0.5l0,0L10.4,7.4z"/>
	</g>
</g>
<g id="XMLID_482_">
</g>
<g id="XMLID_483_">
</g>
<g id="XMLID_484_">
</g>
<g id="XMLID_485_">
</g>
<g id="XMLID_486_">
</g>
<g id="XMLID_487_">
</g>
</svg>
